# File created by Blade
# Date/Time:  Tue Jan 27 19:18:41 2015
# Frame Rate: 120.000 fps
#------------------------------------------------------
:FULLY-SPECIFIED
:DEGREES
3634
root 1.131753 32.176314 0.841335 1.187394 -28.958372 -3.345206
Spine 3.394077 -15.873385 -7.681659
Head 17.241421 15.730832 15.694080
LeftShoulder -14.404016 2.878371 31.420883
LeftArm -9.849245 34.495876 -107.167043
LeftForeArm 6.928518 -0.000000 20.174127
LeftHand 10.236761 -0.000000 -2.734470
LeftHandThumb1 -26.253704 0.000000 33.147579
RightShoulder -28.382576 -22.438588 -40.941396
RightArm -21.112246 52.890250 34.294115
RightForeArm 14.932739 -0.000000 6.751018
RightHand 27.290335 -0.000000 -28.771666
RightHandThumb1 -24.326973 -0.000000 -32.862282
LeftUpLeg 16.506796 23.725224 8.611956
LeftLeg -2.912920 -0.000000 0.000000
LeftFoot -19.517023 15.971293 -28.452182
LeftToeBase 16.160274 -0.000000 -0.000000
RightUpLeg 0.505157 13.410211 9.540404
RightLeg 8.461669 -0.000000 -0.000000
RightFoot -9.638356 -7.871821 8.822843
RightToeBase 12.823580 -0.000000 -0.000000
3635
root 1.126743 32.176049 0.843072 1.156448 -28.931092 -3.344597
Spine 3.380667 -15.861157 -7.681523
Head 17.249208 15.723645 15.669397
LeftShoulder -14.425081 2.886549 31.409602
LeftArm -9.819440 34.415511 -107.101784
LeftForeArm 6.972448 -0.000000 20.125373
LeftHand 10.050432 -0.000000 -2.332889
LeftHandThumb1 -26.253704 0.000000 33.147579
RightShoulder -28.364810 -22.527472 -40.940489
RightArm -21.025549 52.887650 34.258099
RightForeArm 14.766655 -0.000000 6.663283
RightHand 27.391519 -0.000000 -28.372699
RightHandThumb1 -24.326973 -0.000000 -32.862282
LeftUpLeg 16.530600 23.717249 8.637223
LeftLeg -2.894476 -0.000000 0.000000
LeftFoot -19.489135 15.954127 -28.406802
LeftToeBase 16.052527 -0.000000 -0.000000
RightUpLeg 0.544243 13.374367 9.553499
RightLeg 8.455972 -0.000000 -0.000000
RightFoot -9.631290 -7.860899 8.809626
RightToeBase 12.754388 -0.000000 -0.000000
3636
root 1.122000 32.175711 0.843761 1.115927 -28.906594 -3.335749
Spine 3.379237 -15.809048 -7.703227
Head 17.255167 15.661464 15.675870
LeftShoulder -14.422917 2.871730 31.417998
LeftArm -9.784266 34.344940 -107.044963
LeftForeArm 6.995925 -0.000000 20.060299
LeftHand 10.139901 -0.000000 -2.199327
LeftHandThumb1 -26.253704 0.000000 33.147579
RightShoulder -28.367131 -22.556979 -40.965262
RightArm -21.065636 52.864992 34.070824
RightForeArm 14.695621 -0.000000 6.649498
RightHand 27.358394 0.000000 -28.773101
RightHandThumb1 -24.326973 -0.000000 -32.862282
LeftUpLeg 16.558633 23.734024 8.663781
LeftLeg -2.871011 -0.000000 0.000000
LeftFoot -19.460599 15.922244 -28.379767
LeftToeBase 16.006146 -0.000000 -0.000000
RightUpLeg 0.587538 13.332574 9.565373
RightLeg 8.447270 -0.000000 -0.000000
RightFoot -9.571362 -7.890457 8.674412
RightToeBase 12.445761 -0.000000 -0.000000
3637
root 1.117874 32.175356 0.844099 1.082872 -28.884549 -3.330669
Spine 3.375186 -15.747890 -7.714960
Head 17.249140 15.585742 15.669252
LeftShoulder -14.411432 2.847110 31.420780
LeftArm -9.783982 34.297651 -107.008377
LeftForeArm 6.876987 -0.000000 20.064472
LeftHand 10.068988 -0.000000 -1.987764
LeftHandThumb1 -26.253704 0.000000 33.147579
RightShoulder -28.353573 -22.531648 -41.007598
RightArm -21.134223 52.644750 33.891295
RightForeArm 14.654963 0.000000 6.742184
RightHand 27.369313 -0.000000 -28.834955
RightHandThumb1 -24.326973 -0.000000 -32.862282
LeftUpLeg 16.574179 23.707221 8.676326
LeftLeg -2.842453 -0.000000 0.000000
LeftFoot -19.497405 15.910943 -28.411735
LeftToeBase 16.094792 -0.000000 -0.000000
RightUpLeg 0.623839 13.337489 9.575806
RightLeg 8.455126 -0.000000 -0.000000
RightFoot -9.658759 -7.880910 8.812515
RightToeBase 12.835804 -0.000000 -0.000000
3638
root 1.111858 32.175435 0.845154 1.053092 -28.856860 -3.332700
Spine 3.366626 -15.739754 -7.718609
Head 17.265748 15.571046 15.658877
LeftShoulder -14.438727 2.913697 31.381900
LeftArm -9.680105 34.162576 -106.876761
LeftForeArm 7.081071 -0.000000 20.034219
LeftHand 10.125950 -0.000000 -2.095850
LeftHandThumb1 -26.253704 0.000000 33.147579
RightShoulder -28.315143 -22.527533 -41.071004
RightArm -21.214675 52.562329 33.710238
RightForeArm 14.563787 -0.000000 6.936302
RightHand 27.320102 -0.000000 -28.947978
RightHandThumb1 -24.326973 -0.000000 -32.862282
LeftUpLeg 16.598718 23.672131 8.697684
LeftLeg -2.831595 -0.000000 0.000000
LeftFoot -19.492658 15.921929 -28.384542
LeftToeBase 16.141878 -0.000000 -0.000000
RightUpLeg 0.645045 13.219598 9.592136
RightLeg 8.474273 -0.000000 -0.000000
RightFoot -9.588711 -7.854685 8.645000
RightToeBase 12.534907 -0.000000 -0.000000
3639
root 1.108455 32.175023 0.844652 1.030113 -28.838898 -3.320483
Spine 3.351569 -15.731272 -7.736820
Head 17.273531 15.570653 15.663554
LeftShoulder -14.454002 2.914352 31.376063
LeftArm -9.668318 33.978233 -106.816677
LeftForeArm 7.210506 -0.000000 20.018311
LeftHand 10.174953 0.000000 -2.128103
LeftHandThumb1 -26.253704 0.000000 33.147579
RightShoulder -28.289469 -22.523528 -41.119819
RightArm -21.289300 52.583375 33.499724
RightForeArm 14.506070 -0.000000 7.155016
RightHand 27.296669 -0.000000 -28.968937
RightHandThumb1 -24.326973 -0.000000 -32.862282
LeftUpLeg 16.602818 23.640298 8.693537
LeftLeg -2.814646 -0.000000 0.000000
LeftFoot -19.506216 15.944905 -28.377073
LeftToeBase 16.135948 -0.000000 -0.000000
RightUpLeg 0.660382 13.207107 9.595375
RightLeg 8.485401 -0.000000 -0.000000
RightFoot -9.586870 -7.873012 8.618046
RightToeBase 12.464396 -0.000000 -0.000000
3640
root 1.103629 32.174623 0.843898 1.003056 -28.827460 -3.312886
Spine 3.346739 -15.709967 -7.756478
Head 17.274834 15.585305 15.665661
LeftShoulder -14.472185 2.958853 31.363051
LeftArm -9.630714 33.848174 -106.737504
LeftForeArm 7.294753 0.000000 20.051423
LeftHand 10.136414 -0.000000 -2.066621
LeftHandThumb1 -26.253704 0.000000 33.147579
RightShoulder -28.275699 -22.532481 -41.158049
RightArm -21.298255 52.461437 33.362937
RightForeArm 14.671231 -0.000000 7.405046
RightHand 27.306803 -0.000000 -29.085304
RightHandThumb1 -24.326973 -0.000000 -32.862282
LeftUpLeg 16.616295 23.615821 8.697632
LeftLeg -2.794460 -0.000000 0.000000
LeftFoot -19.516439 15.939819 -28.460313
LeftToeBase 16.022215 -0.000000 -0.000000
RightUpLeg 0.680231 13.213329 9.602761
RightLeg 8.509963 -0.000000 -0.000000
RightFoot -9.680514 -7.850116 8.746139
RightToeBase 12.826141 -0.000000 -0.000000
